<?xml version="1.0" standalone="no"?>
<!DOCTYPE svg PUBLIC "-//W3C//DTD SVG 20010904//EN"
 "http://www.w3.org/TR/2001/REC-SVG-20010904/DTD/svg10.dtd">
<svg version="1.0" xmlns="http://www.w3.org/2000/svg"
 width="784.000000pt" height="784.000000pt" viewBox="0 0 784.000000 784.000000"
 preserveAspectRatio="xMidYMid meet">
<metadata>
Created by potrace 1.14, written by Peter Selinger 2001-2017
</metadata>
<g transform="translate(0.000000,784.000000) scale(0.100000,-0.100000)"
fill="#000000" stroke="none">
<path d="M819 7206 c-2 -3 -24 -7 -49 -11 -25 -4 -74 -18 -110 -32 -209 -83
-362 -262 -413 -481 -14 -62 -16 -233 -3 -279 3 -13 8 -31 10 -40 12 -54 52
-138 92 -198 46 -69 65 -89 140 -153 73 -62 264 -142 340 -142 20 0 195 -172
2284 -2253 335 -335 610 -614 611 -620 4 -83 57 -234 96 -279 13 -15 -32 -64
-495 -528 l-509 -511 -56 35 c-31 20 -59 36 -62 36 -3 0 -24 9 -48 20 -23 10
-54 21 -69 24 -15 3 -33 8 -39 11 -30 19 -245 13 -324 -9 -62 -18 -173 -74
-233 -119 -57 -43 -162 -161 -162 -183 0 -7 -3 -14 -8 -16 -14 -6 -53 -97 -71
-170 -23 -89 -22 -252 2 -336 36 -125 123 -264 208 -332 24 -19 45 -38 47 -42
2 -4 8 -8 14 -8 5 0 22 -9 38 -20 40 -29 167 -77 225 -86 89 -13 203 -10 272
7 222 55 401 210 480 417 30 79 33 95 40 229 3 62 9 100 15 97 5 -3 274 260
598 586 526 528 592 591 612 584 29 -10 136 -10 208 0 50 7 228 70 240 85 3 4
18 15 35 25 84 54 181 168 227 267 45 96 62 171 62 279 1 168 -39 285 -142
423 l-43 57 34 0 35 0 -4 248 c-2 136 -6 391 -9 567 -6 397 -14 866 -20 1219
l-4 270 24 24 c23 23 24 23 42 5 10 -10 57 -52 103 -93 46 -41 91 -82 100 -90
21 -20 173 -156 229 -206 25 -21 54 -48 66 -59 11 -11 59 -54 105 -95 47 -41
98 -88 114 -103 16 -15 54 -49 84 -75 30 -26 69 -60 87 -77 17 -16 50 -46 71
-65 22 -19 82 -73 134 -120 52 -47 100 -89 106 -95 6 -5 49 -44 94 -85 46 -41
108 -97 139 -125 138 -124 136 -122 123 -137 -26 -32 -79 -146 -87 -188 -1 -3
-5 -20 -9 -38 -51 -214 19 -458 178 -617 44 -44 107 -93 117 -91 4 1 15 -6 25
-15 27 -24 99 -55 169 -73 103 -26 209 -27 330 -2 102 21 230 93 311 175 70
70 74 76 100 121 10 19 21 37 24 40 13 12 52 115 66 175 16 67 13 229 -6 302
-31 119 -82 213 -160 293 -151 156 -307 221 -516 216 -62 -1 -94 2 -94 9 0 6
-15 23 -32 39 -18 16 -56 49 -84 75 -28 25 -86 78 -129 116 -44 39 -104 93
-135 121 -30 29 -70 64 -88 79 -19 16 -46 40 -60 54 -15 14 -63 58 -106 96
-43 39 -91 81 -106 95 -60 55 -194 176 -214 193 -12 10 -50 44 -86 77 -36 32
-82 73 -103 92 -21 18 -65 58 -98 89 -32 30 -59 54 -59 53 0 -2 -10 7 -23 19
-12 12 -56 51 -96 87 -71 63 -131 117 -216 195 -22 21 -64 58 -93 83 -98 84
-110 100 -116 139 -22 140 -108 304 -200 382 -15 14 -33 30 -40 36 -38 37
-173 112 -219 121 -10 2 -26 5 -35 8 -45 14 -84 18 -166 21 -226 5 -433 -102
-569 -295 -28 -40 -68 -123 -84 -173 -5 -17 -14 -18 -102 -12 -53 3 -139 8
-191 10 -52 2 -95 5 -95 5 0 1 -29 3 -65 5 -36 2 -112 7 -170 10 -58 3 -136 8
-175 10 -38 2 -110 6 -160 10 -116 7 -216 13 -335 20 -52 3 -135 8 -185 11
-49 3 -126 7 -170 9 -44 2 -114 6 -155 9 -100 8 -361 23 -427 25 -17 1 -25 10
-34 44 -28 105 -117 251 -194 320 -56 50 -171 116 -246 142 -67 22 -106 29
-190 31 -58 2 -108 2 -110 0z m911 -1060 c36 -3 115 -7 175 -11 61 -4 139 -8
175 -10 36 -3 115 -7 175 -11 61 -3 133 -7 160 -9 28 -1 109 -6 180 -10 72 -4
155 -9 185 -11 30 -2 96 -6 145 -9 95 -5 181 -10 355 -21 58 -3 130 -8 160 -9
148 -8 290 -17 333 -19 37 -3 47 0 43 10 -3 7 -2 16 3 18 4 3 6 21 5 40 -2 20
-1 36 2 36 2 0 14 -21 24 -46 88 -204 298 -363 525 -396 13 -2 21 -12 22 -28
2 -25 9 -443 18 -985 2 -159 7 -435 10 -612 l6 -323 -58 -1 c-32 0 -67 -3 -78
-5 -11 -3 -29 -6 -40 -9 -81 -15 -224 -75 -233 -97 -2 -4 -8 -8 -13 -8 -10 0
-44 -26 -68 -52 -8 -10 -20 -18 -25 -18 -5 0 -166 156 -358 348 -191 191 -758
755 -1260 1254 -983 979 -918 906 -870 956 6 8 17 22 22 32 11 20 47 21 280 6z"/>
</g>
</svg>
